<?xml version="1.0" encoding="UTF-8"?>
<svg version="1.1" xmlns="http://www.w3.org/2000/svg" width="512" height="512">
<path d="M0 0 C0.78478226 -0.00846954 1.56956451 -0.01693909 2.37812805 -0.02566528 C4.94528856 -0.04886909 7.51184462 -0.05006208 10.07910156 -0.04882812 C11.87412757 -0.05593551 13.66915131 -0.06363536 15.46417236 -0.07189941 C19.21299577 -0.08530279 22.96160864 -0.08692979 26.71044922 -0.08105469 C31.51484282 -0.07513682 36.31823347 -0.1058549 41.12243271 -0.14617157 C44.82333828 -0.17200026 48.52399994 -0.17493089 52.22498322 -0.17127991 C53.99683419 -0.17297309 55.7686962 -0.18263467 57.54045868 -0.20042419 C60.01333977 -0.22253892 62.4841578 -0.21295518 64.95703125 -0.1953125 C65.68749161 -0.20857574 66.41795197 -0.22183899 67.17054749 -0.23550415 C70.852429 -0.17440798 72.43037594 0.15261258 75.17254639 2.68589783 C76.69769547 5.3809907 77.22391929 6.73870574 77.23730469 9.77954102 C77.24991333 10.60712418 77.26252197 11.43470734 77.2755127 12.28736877 C77.26336731 13.6078849 77.26336731 13.6078849 77.25097656 14.95507812 C77.25480347 15.87075058 77.25863037 16.78642303 77.26257324 17.72984314 C77.26528885 19.66048282 77.2579523 21.59115951 77.24121094 23.52172852 C77.2197713 26.47625635 77.24103678 29.42835942 77.26660156 32.3828125 C77.26395871 34.26107307 77.2588346 36.13933213 77.25097656 38.01757812 C77.25907349 38.89994644 77.26717041 39.78231476 77.2755127 40.69142151 C77.18228717 46.78708267 77.18228717 46.78708267 74.87402344 49.94506836 C71.42115876 52.30893458 68.67799796 52.54330752 64.60571289 52.53344727 C63.56486038 52.53337173 62.52400787 52.5332962 61.45161438 52.53321838 C60.32966171 52.5280571 59.20770905 52.52289581 58.05175781 52.51757812 C56.90180832 52.51616318 55.75185883 52.51474823 54.56706238 52.51329041 C50.88875748 52.50768616 47.21051311 52.49513291 43.53222656 52.48242188 C41.04069098 52.47740742 38.54915445 52.47284442 36.05761719 52.46875 C29.9449636 52.45771535 23.83235535 52.44044783 17.71972656 52.41992188 C17.71972656 57.69992188 17.71972656 62.97992188 17.71972656 68.41992188 C62.26972656 68.41992188 106.81972656 68.41992188 152.71972656 68.41992188 C152.71972656 56.20992187 152.71972656 43.99992187 152.71972656 31.41992188 C156.71972656 26.41992187 156.71972656 26.41992187 158.71972656 25.41992188 C161.77013328 25.3439407 164.79773135 25.32900261 167.84765625 25.35742188 C169.80979292 25.36686877 171.77193086 25.37605227 173.73406982 25.38500977 C174.77783531 25.39130402 175.8216008 25.39759827 176.89699554 25.40408325 C182.41081768 25.43099911 187.92460713 25.42117901 193.43847656 25.41601562 C200.46159439 25.40980361 207.48390759 25.41516325 214.50683594 25.47119141 C220.1765259 25.5154528 225.84473256 25.51600902 231.51450348 25.48706055 C233.67546479 25.48397823 235.83651048 25.49689448 237.99727631 25.52612305 C241.02460817 25.56480903 244.0468969 25.54761761 247.07421875 25.51757812 C247.96587738 25.54215591 248.85753601 25.5667337 249.7762146 25.59205627 C252.37965453 25.5313859 254.29488986 25.38054182 256.71972656 24.41992188 C258.67114659 22.28655382 260.0276001 20.1754313 261.40452957 17.63694763 C263.98395833 13.28880812 268.02379831 11.22934218 272.46972656 9.10742188 C281.02508399 7.29763473 289.15774601 7.76254312 296.71972656 12.41992188 C303.22781738 17.9540127 306.85399945 24.00117369 307.99316406 32.44726562 C308.36956537 39.75813715 306.10543465 46.11748556 301.46972656 51.73242188 C295.88671032 57.67029084 289.83974384 60.54135161 281.65722656 60.79492188 C274.10586745 60.7192401 268.4143932 58.86110826 262.84082031 53.66992188 C260.18002112 50.69495603 258.52627037 48.03300949 256.71972656 44.41992188 C228.33972656 44.08992188 199.95972656 43.75992188 170.71972656 43.41992188 C170.71972656 55.62992188 170.71972656 67.83992188 170.71972656 80.41992188 C166.71972656 85.41992188 166.71972656 85.41992188 164.71972656 86.41992188 C162.78118347 86.51376439 160.83934151 86.54182955 158.89852905 86.54017639 C157.65889908 86.54155106 156.4192691 86.54292572 155.14207458 86.54434204 C153.76089454 86.54080267 152.37971473 86.53716786 150.99853516 86.53344727 C149.54998273 86.53316532 148.10143015 86.53332328 146.65287781 86.53388977 C142.7130268 86.53417744 138.77320606 86.52828558 134.8333621 86.52131581 C130.71871308 86.51507726 126.60406342 86.51447808 122.4894104 86.51329041 C114.69441589 86.51017858 106.89943536 86.50196717 99.10444701 86.49194092 C90.2315363 86.48077519 81.35862493 86.47526817 72.48570895 86.47024548 C54.23037356 86.45978445 35.97505118 86.44218786 17.71972656 86.41992188 C17.74147949 87.33463257 17.74147949 87.33463257 17.76367188 88.26782227 C17.77495117 89.0721167 17.78623047 89.87641113 17.79785156 90.70507812 C17.81235352 91.50051025 17.82685547 92.29594238 17.84179688 93.11547852 C17.66395736 96.47273291 16.59932857 98.66764751 14.71972656 101.41992188 C10.92458233 104.19172304 6.47042936 103.7257211 1.97363281 103.72070312 C1.12550522 103.72498825 0.27737762 103.72927338 -0.59645081 103.73368835 C-2.38761504 103.73942323 -4.17880255 103.73993812 -5.9699707 103.7355957 C-8.70467009 103.73243701 -11.43828594 103.75590032 -14.17285156 103.78125 C-15.91568874 103.78352327 -17.65852882 103.78422636 -19.40136719 103.78320312 C-20.21608994 103.79241287 -21.03081268 103.80162262 -21.870224 103.81111145 C-26.4962728 103.77356891 -29.51710598 103.40897275 -33.28027344 100.41992188 C-35.27630781 97.18824718 -35.36004838 94.44092953 -35.32324219 90.74023438 C-35.31703857 89.93086426 -35.31083496 89.12149414 -35.30444336 88.28759766 C-35.29646729 87.67126465 -35.28849121 87.05493164 -35.28027344 86.41992188 C-47.99846691 86.45805628 -60.71636777 86.517531 -73.43433094 86.60382462 C-79.34059022 86.64323818 -85.24670177 86.67545679 -91.15307617 86.69091797 C-96.85911506 86.70612468 -102.56474764 86.74064189 -108.27060509 86.7882309 C-110.44131617 86.80300326 -112.61208527 86.8109605 -114.78284645 86.81180573 C-129.71365741 86.82346025 -141.79273083 86.94394681 -153.11230469 97.84960938 C-160.27586391 106.34262193 -161.4941821 115.72448872 -161.28027344 126.41992188 C-160.33667969 125.91332031 -160.33667969 125.91332031 -159.37402344 125.39648438 C-158.51808594 124.95046875 -157.66214844 124.50445312 -156.78027344 124.04492188 C-155.94496094 123.6040625 -155.10964844 123.16320312 -154.24902344 122.70898438 C-145.38821892 118.86152978 -136.6520006 119.15100213 -127.17306519 119.20201111 C-125.52051729 119.20345395 -123.86796839 119.20399041 -122.21541989 119.20370108 C-118.62931438 119.20501522 -115.04329796 119.21269501 -111.45721436 119.22525978 C-105.62204021 119.24567838 -99.78689559 119.25230177 -93.95169067 119.25726318 C-85.48093046 119.2656811 -77.01020032 119.28037256 -68.53945541 119.2983532 C-55.1539931 119.32589764 -41.76857361 119.32931869 -28.38308716 119.32826233 C-26.10251455 119.32820792 -23.82194193 119.32817031 -21.54136932 119.32814926 C-18.08548235 119.32810928 -14.62959537 119.32806458 -11.1737084 119.3279712 C1.84822544 119.32775862 14.8701572 119.33061308 27.89208984 119.33618164 C29.08223788 119.33668282 30.27238591 119.337184 31.49859904 119.33770037 C50.8031404 119.34666854 70.10756466 119.38157849 89.41205706 119.42422061 C109.23054573 119.46720656 129.04885232 119.47594444 148.86737621 119.45441061 C161.0935841 119.44234331 173.31912282 119.45810638 185.54523204 119.50936765 C193.91786218 119.5420562 202.29008778 119.54210359 210.66274036 119.51623809 C215.49625387 119.50232448 220.32860152 119.50322794 225.16199493 119.54323006 C229.58519624 119.57953814 234.0063427 119.5745748 238.42951141 119.53650517 C240.03099773 119.53007351 241.63263206 119.5389346 243.23392774 119.56446778 C251.69090328 119.98708289 251.69090328 119.98708289 258.93987823 116.41822541 C260.45485718 114.14293503 261.57430909 111.89408101 262.71972656 109.41992188 C265.13378906 107.26367187 265.13378906 107.26367187 267.34472656 105.91992188 C268.07949219 105.45585938 268.81425781 104.99179688 269.57128906 104.51367188 C275.63067124 101.4288955 282.90225453 101.50151556 289.41503906 103.06835938 C296.4702092 105.5926863 301.62770353 109.26070694 305.03613281 116.03710938 C308.6618476 125.15824552 308.6618476 131.68159823 305.03613281 140.80273438 C301.62999037 147.57459027 296.46682529 151.27181868 289.39941406 153.76367188 C281.97531028 155.58181974 274.44448526 155.20972233 267.71972656 151.41992188 C263.65006415 148.66789606 261.16307131 146.41915083 259.13897705 141.85716248 C258.13238232 139.94688091 258.13238232 139.94688091 256.71972656 138.41992188 C253.60252599 137.68783203 251.49471277 137.47089363 248.37109375 137.53344727 C247.53170258 137.52267151 246.6923114 137.51189575 245.82748413 137.50079346 C243.0562963 137.4734103 240.28779803 137.49527673 237.51660156 137.51757812 C235.59416005 137.50819496 233.67173128 137.49573836 231.74932861 137.48033142 C226.69217468 137.44806299 221.63592622 137.45756329 216.57873535 137.47570801 C210.50966992 137.48881408 204.44074108 137.45014082 198.37176514 137.42012787 C189.1539135 137.38034964 179.9383477 137.4064218 170.71972656 137.41992188 C170.71972656 156.88992187 170.71972656 176.35992187 170.71972656 196.41992188 C179.29972656 196.08992187 187.87972656 195.75992188 196.71972656 195.41992188 C198.69972656 192.44992188 200.67972656 189.47992188 202.71972656 186.41992188 C205.16894531 184.26367188 205.16894531 184.26367188 207.40722656 182.91992188 C208.15359375 182.45585937 208.89996094 181.99179688 209.66894531 181.51367188 C216.15206243 178.05600941 224.72628921 178.2341209 231.65332031 180.29101562 C238.63304377 183.5312221 243.46485864 188.11690153 246.59472656 195.16992188 C249.11015549 202.9722703 248.41010355 210.72458215 245.03613281 218.13085938 C241.30501932 224.61878966 236.35439667 228.30326712 229.32519531 230.75976562 C221.2012571 232.81815477 213.97876174 231.56620495 206.71972656 227.41992188 C201.73159863 223.61197948 199.61915047 220.39722223 197.71972656 214.41992188 C196.90084867 214.42683532 196.90084867 214.42683532 196.06542778 214.43388844 C182.76951096 214.54440825 169.47367483 214.62677848 156.17739677 214.67898273 C149.74732218 214.70507728 143.31757911 214.74047403 136.88769531 214.79711914 C130.68258531 214.85144204 124.47779419 214.88134348 118.27246475 214.89430809 C115.90494898 214.90354731 113.53745068 214.92158936 111.17007065 214.94857216 C107.85404482 214.98486456 104.53933698 214.98986692 101.22314453 214.98754883 C99.75470848 215.0145134 99.75470848 215.0145134 98.25660706 215.04202271 C93.77810256 215.00814259 90.68444359 214.88058502 87.11087036 212.01335144 C83.91253713 208.54444591 83.91253713 208.54444591 84.03222656 205.41992188 C84.02835937 204.78054687 84.02449219 204.14117187 84.02050781 203.48242188 C85.12855017 200.21400644 87.10997784 198.62113018 89.71972656 196.41992188 C92.71272278 195.81864929 92.71272278 195.81864929 96.07055664 195.85229492 C97.33148636 195.85267258 98.59241608 195.85305023 99.89155579 195.85343933 C101.25746662 195.87896863 102.62336726 195.90504855 103.98925781 195.93164062 C105.39457438 195.94097328 106.79990728 195.94808726 108.20524597 195.95307922 C111.89311115 195.97211415 115.57998207 196.02118217 119.26745605 196.07659912 C123.03461007 196.1278688 126.80193051 196.15088407 130.56933594 196.17578125 C137.95367581 196.2266516 145.33529024 196.32451572 152.71972656 196.41992188 C152.71972656 176.94992188 152.71972656 157.47992188 152.71972656 137.41992188 C115.4360061 137.45927718 78.15243096 137.51287427 40.86879239 137.59784283 C36.46542573 137.60786008 32.0620587 137.61770424 27.65869141 137.62744141 C26.34376495 137.63035347 26.34376495 137.63035347 25.00227432 137.63332435 C10.81500818 137.66433112 -3.37224179 137.68132131 -17.55953543 137.6931161 C-32.1209696 137.70553451 -46.68231901 137.73305152 -61.24369967 137.77453494 C-70.22622423 137.79965057 -79.20860821 137.81304057 -88.19116838 137.81135145 C-94.35390461 137.81132165 -100.51649781 137.8259802 -106.67917828 137.85208616 C-110.23282418 137.86670934 -113.78617678 137.87495482 -117.33984756 137.86572456 C-121.19887091 137.85587113 -125.0573821 137.87699908 -128.91635132 137.90093994 C-130.0311617 137.89317952 -131.14597209 137.88541911 -132.2945646 137.87742352 C-141.20978259 137.9751773 -148.7570441 139.58905985 -155.21777344 146.04492188 C-164.67440824 156.6865404 -162.32016386 175.26543437 -162.55029297 188.60351562 C-162.60820875 191.64490733 -162.71952527 194.67708348 -162.87841797 197.71484375 C-164.2696122 214.04983777 -164.2696122 214.04983777 -159.5135498 229.09594727 C-155.16033599 233.54592072 -150.11405461 236.4811274 -144.57403564 239.23791504 C-141.60176028 240.76956893 -139.09003676 242.69142491 -136.49902344 244.79492188 C-135.70931152 245.40062012 -134.91959961 246.00631836 -134.10595703 246.63037109 C-133.33848145 247.22092285 -132.57100586 247.81147461 -131.78027344 248.41992188 C-124.78500615 253.77561151 -117.74955079 259.07100358 -110.65527344 264.29492188 C-109.85541016 264.88402344 -109.05554688 265.473125 -108.23144531 266.08007812 C-101.85879202 271.07398515 -101.85879202 271.07398515 -94.17480469 272.83398438 C-93.19189453 272.87265625 -92.20898438 272.91132813 -91.19628906 272.95117188 C-90.17212891 272.98210937 -89.14796875 273.01304687 -88.09277344 273.04492188 C-87.05701172 273.08359375 -86.02125 273.12226563 -84.95410156 273.16210938 C-82.39633721 273.25640483 -79.83858056 273.34200389 -77.28027344 273.41992188 C-77.3012207 272.53208008 -77.32216797 271.64423828 -77.34375 270.72949219 C-77.41203021 267.42697732 -77.46212214 264.12521518 -77.5 260.82226562 C-77.52008326 259.39441066 -77.54735596 257.96663763 -77.58203125 256.5390625 C-77.63070013 254.48351819 -77.65327311 252.42906332 -77.67089844 250.37304688 C-77.70231934 248.51921387 -77.70231934 248.51921387 -77.734375 246.62792969 C-77.28027344 243.41992188 -77.28027344 243.41992188 -75.50585938 241.04785156 C-72.10008659 238.55666102 -69.30383879 238.29095547 -65.17089844 238.32226562 C-64.4905957 238.32476318 -63.81029297 238.32726074 -63.109375 238.32983398 C-62.25827148 238.33893799 -61.40716797 238.34804199 -60.53027344 238.35742188 C-57.80777344 238.37804687 -55.08527344 238.39867187 -52.28027344 238.41992188 C-52.28027344 232.80992187 -52.28027344 227.19992188 -52.28027344 221.41992188 C-46.34027344 221.41992188 -40.40027344 221.41992188 -34.28027344 221.41992188 C-34.28027344 227.02992188 -34.28027344 232.63992187 -34.28027344 238.41992188 C-33.05050781 238.38511719 -31.82074219 238.3503125 -30.55371094 238.31445312 C-28.92091217 238.28630142 -27.28809853 238.25900275 -25.65527344 238.23242188 C-24.84703125 238.20728516 -24.03878906 238.18214844 -23.20605469 238.15625 C-18.13796753 238.09444406 -14.64323507 238.5403672 -10.28027344 241.41992188 C-7.85823305 245.05298245 -8.04724453 246.7381121 -8.08496094 251.05664062 C-8.09462891 253.00473633 -8.09462891 253.00473633 -8.10449219 254.9921875 C-8.12120283 256.36393495 -8.13813272 257.73567974 -8.15527344 259.10742188 C-8.1653067 260.49087906 -8.17443195 261.87434315 -8.18261719 263.2578125 C-8.20622377 266.6453564 -8.23915307 270.03255259 -8.28027344 273.41992188 C18.36214959 273.47616498 45.00425331 273.48690111 71.64670849 273.44326782 C84.01694776 273.42407291 96.38685602 273.41984294 108.75708008 273.45068359 C119.53737776 273.47752255 130.31724673 273.47644545 141.09752828 273.44166279 C146.80725765 273.42422009 152.51621885 273.42088097 158.22591209 273.45095825 C163.59838578 273.47881843 168.96949465 273.46939998 174.34189224 273.43118477 C176.31517175 273.4237563 178.28855697 273.4300372 180.26173973 273.45094109 C182.95475239 273.47743313 185.64304702 273.45486684 188.33586121 273.41992188 C189.1189414 273.43933366 189.90202159 273.45874544 190.70883149 273.47874546 C193.20642457 273.49501165 193.20642457 273.49501165 196.71972656 272.41992188 C198.37492021 270.52031682 199.49841669 268.65525735 200.63385659 266.40942383 C203.38816322 261.36305679 208.57922518 258.61771708 213.71972656 256.41992188 C222.9027959 255.19551263 231.15296356 255.80861448 238.71972656 261.41992188 C244.19081057 266.21585083 247.16000008 271.81772634 248.03613281 279.02148438 C248.37956848 286.8872691 246.91888165 293.58875447 241.80175781 299.71679688 C235.95351488 305.38907497 230.09725013 308.2546907 221.92285156 308.50585938 C213.41641605 308.059389 207.55566237 305.7086339 201.78222656 299.41992188 C199.30400495 296.52960419 198.68393561 295.27675807 197.71972656 291.41992188 C180.55972656 291.41992188 163.39972656 291.41992188 145.71972656 291.41992188 C145.71972656 302.30992187 145.71972656 313.19992187 145.71972656 324.41992188 C182.34972656 324.41992188 218.97972656 324.41992188 256.71972656 324.41992188 C257.37972656 322.76992188 258.03972656 321.11992187 258.71972656 319.41992188 C262.79588076 313.35650137 267.54331288 309.15440252 274.71972656 307.41992188 C282.72843103 306.46603152 289.88849514 306.88355726 296.71972656 311.41992188 C303.35985977 316.65940198 306.45822196 322.31518467 307.59472656 330.73242188 C308.0834253 338.48785838 306.445472 344.71239148 301.53222656 350.79492188 C296.67571162 355.88808902 290.70208907 358.92454358 283.67675781 359.62304688 C275.25755354 359.8070732 268.745002 357.82682522 262.32519531 352.31054688 C260.71972656 350.41992187 260.71972656 350.41992187 259.34849548 346.85418701 C257.91160963 344.34524792 257.22590093 343.56120111 254.40626717 342.77420807 C251.27013307 342.53498856 248.19894255 342.52381183 245.05395508 342.58105469 C243.86171326 342.57509781 242.66947144 342.56914093 241.44110107 342.56300354 C238.17388113 342.55296614 234.9085398 342.57366981 231.64153028 342.60702991 C228.22051551 342.63385175 224.79971016 342.61875814 221.37864685 342.60736084 C214.89631684 342.59158968 208.41455898 342.60881822 201.93230051 342.64003158 C190.32775368 342.69528972 178.72319431 342.70388635 167.11854118 342.68652797 C163.71396245 342.68262765 160.30973387 342.68678677 156.90521431 342.70835114 C153.10836107 342.73167386 149.31180762 342.7378643 145.51489258 342.74121094 C144.3890123 342.75364334 143.26313202 342.76607574 142.10313416 342.77888489 C140.54908371 342.77525185 140.54908371 342.77525185 138.96363831 342.77154541 C138.06639825 342.77602818 137.16915819 342.78051094 136.24472904 342.78512955 C133.14094818 342.33620936 131.25355588 341.23747551 128.71972656 339.41992188 C121.56275638 325.10598151 127.71972656 307.42339372 127.71972656 291.41992188 C82.83972656 291.41992188 37.95972656 291.41992188 -8.28027344 291.41992188 C-8.28027344 300.65992188 -8.28027344 309.89992188 -8.28027344 319.41992188 C-12.28027344 324.41992188 -12.28027344 324.41992188 -15.28027344 325.41992188 C-16.76150891 325.50058407 -18.24609548 325.52753381 -19.72949219 325.51757812 C-20.57705078 325.51435547 -21.42460937 325.51113281 -22.29785156 325.5078125 C-23.17892578 325.49943359 -24.06 325.49105469 -24.96777344 325.48242188 C-25.86044922 325.47791016 -26.753125 325.47339844 -27.67285156 325.46875 C-29.87535417 325.45697191 -32.07782229 325.43903669 -34.28027344 325.41992188 C-34.28027344 331.02992188 -34.28027344 336.63992188 -34.28027344 342.41992188 C-40.22027344 342.41992188 -46.16027344 342.41992188 -52.28027344 342.41992188 C-52.28027344 336.80992187 -52.28027344 331.19992187 -52.28027344 325.41992188 C-53.58222656 325.47792969 -54.88417969 325.5359375 -56.22558594 325.59570312 C-57.95211245 325.64261961 -59.67867791 325.68811774 -61.40527344 325.73242188 C-62.26121094 325.77431641 -63.11714844 325.81621094 -63.99902344 325.859375 C-68.22899914 325.94072069 -70.95863959 325.56255949 -74.87402344 323.82617188 C-77.87421175 320.85915518 -77.72402892 317.65563772 -77.86621094 313.58789062 C-77.82632268 310.92202512 -77.75635925 308.2703019 -77.65527344 305.60742188 C-77.62515465 304.23313093 -77.59778216 302.85877688 -77.57324219 301.484375 C-77.50258065 298.12795219 -77.40395049 294.77474122 -77.28027344 291.41992188 C-78.0667627 291.43563232 -78.85325195 291.45134277 -79.66357422 291.4675293 C-83.24406682 291.53008103 -86.82444419 291.56897739 -90.40527344 291.60742188 C-92.26152344 291.64512695 -92.26152344 291.64512695 -94.15527344 291.68359375 C-95.35410156 291.69326172 -96.55292969 291.70292969 -97.78808594 291.71289062 C-98.88781738 291.72860107 -99.98754883 291.74431152 -101.12060547 291.76049805 C-107.30757365 291.09361344 -111.63980368 287.55713484 -116.40527344 283.79492188 C-117.55712155 282.89324669 -118.70947588 281.99221786 -119.86230469 281.09179688 C-120.43674316 280.64126953 -121.01118164 280.19074219 -121.60302734 279.7265625 C-125.55551801 276.64741694 -129.58842921 273.67328404 -133.60253906 270.67529297 C-135.47143498 269.27688453 -137.33698687 267.87408824 -139.20214844 266.47070312 C-139.88817139 265.95491699 -140.57419434 265.43913086 -141.28100586 264.90771484 C-142.59932034 263.91644226 -143.91723122 262.92463254 -145.23461914 261.93212891 C-149.14434832 258.9949165 -153.08338578 256.10089412 -157.03979492 253.22680664 C-158.51499855 252.15487816 -158.51499855 252.15487816 -160.02000427 251.06129456 C-160.7658931 250.51964157 -161.51178192 249.97798859 -162.28027344 249.41992188 C-162.24306967 273.8725738 -162.1831542 298.32507944 -162.0963707 322.77760792 C-162.05660018 334.13193301 -162.02419755 345.48618899 -162.00927734 356.84057617 C-161.99625057 366.73970339 -161.9692596 376.63867841 -161.92566037 386.53771991 C-161.90306877 391.77681206 -161.88736139 397.01571665 -161.88838959 402.25486183 C-161.88913755 407.19203657 -161.87113192 412.12879706 -161.83910561 417.06586456 C-161.83062791 418.87212674 -161.82884212 420.67843549 -161.83447075 422.48470879 C-161.93127372 438.24529869 -161.93127372 438.24529869 -155.13183594 452.17382812 C-154.39707031 452.77066406 -153.66230469 453.3675 -152.90527344 453.98242188 C-152.17566406 454.60246094 -151.44605469 455.2225 -150.69433594 455.86132812 C-144.25245751 460.02040498 -137.77029816 459.71107941 -130.35940552 459.69839478 C-129.14963102 459.70418718 -127.93985653 459.70997958 -126.6934222 459.71594751 C-123.34345252 459.72999738 -119.99368243 459.73517677 -116.64369774 459.73659611 C-113.02820328 459.74029459 -109.41275462 459.75545231 -105.79728699 459.76921082 C-99.53589484 459.79147338 -93.27451901 459.80649269 -87.01309586 459.81657791 C-77.96016026 459.83116989 -68.90728151 459.85670817 -59.85437928 459.8849092 C-45.16628093 459.93036775 -30.4781744 459.96698644 -15.79003906 459.99804688 C-1.52277183 460.02823625 12.74447537 460.0625883 27.01171875 460.10253906 C28.33109978 460.10623139 28.33109978 460.10623139 29.67713498 460.1099983 C34.08981238 460.12237298 38.50248955 460.1348295 42.91516662 460.14732671 C79.51665958 460.25088049 116.11817591 460.33954315 152.71972656 460.41992188 C152.71972656 449.52992188 152.71972656 438.63992188 152.71972656 427.41992188 C145.98501953 427.50693359 145.98501953 427.50693359 139.11425781 427.59570312 C135.52902167 427.62786933 131.94382642 427.65497908 128.35852814 427.67867279 C124.57653236 427.70505183 120.79509891 427.74028655 117.01342773 427.79711914 C113.36942175 427.85153868 109.72596025 427.88136273 106.08157921 427.89430809 C104.69287229 427.90353045 103.30419442 427.9215404 101.91571999 427.94857216 C99.96762912 427.98498258 98.01898765 427.98696526 96.07055664 427.98754883 C94.96247147 427.99865189 93.85438629 428.00975494 92.71272278 428.02119446 C88.75146283 427.22540428 87.25655782 425.48456319 84.71972656 422.41992188 C84.02050781 420.35742188 84.02050781 420.35742188 84.03222656 418.41992188 C84.00773437 417.78054688 83.98324219 417.14117187 83.95800781 416.48242188 C85.26376177 412.94684194 87.42579626 411.04148459 90.71972656 409.41992188 C95.42978191 408.71683952 100.11951372 408.83729667 104.86816406 408.93164062 C106.2496309 408.94097647 107.63111439 408.94808894 109.01260376 408.95307922 C112.63306091 408.97208915 116.25250089 409.02113501 119.87255859 409.07659912 C123.57277672 409.12792328 127.27316065 409.15062113 130.97363281 409.17578125 C138.22279238 409.22926226 145.47111647 409.31449885 152.71972656 409.41992188 C152.6987793 408.59790283 152.67783203 407.77588379 152.65625 406.92895508 C152.57299347 403.19690224 152.5210341 399.46504494 152.46972656 395.73242188 C152.43621094 394.43884766 152.40269531 393.14527344 152.36816406 391.8125 C152.35527344 390.56533203 152.34238281 389.31816406 152.32910156 388.03320312 C152.3081543 386.88634033 152.28720703 385.73947754 152.265625 384.55786133 C152.81587757 380.75549773 154.06243847 379.13866979 156.71972656 376.41992188 C159.50505963 375.02725534 161.80961483 375.26952846 164.92602539 375.24291992 C166.2311055 375.23008469 167.53618561 375.21724945 168.8808136 375.20402527 C170.31279115 375.19585775 171.74477299 375.18841404 173.17675781 375.18164062 C173.89683203 375.1775651 174.61690624 375.17348957 175.35880089 375.16929054 C179.17059416 375.14842879 182.98235143 375.13412797 186.79418945 375.12475586 C190.72861495 375.11369527 194.66247427 375.07930055 198.59669971 375.03958416 C201.62421204 375.01341917 204.65158949 375.00506415 207.67920494 375.00147438 C209.12926746 374.99660749 210.57932391 374.98499042 212.02927589 374.96643639 C214.06112645 374.94205391 216.09325233 374.94542887 218.12524414 374.94995117 C219.8582653 374.94115181 219.8582653 374.94115181 221.626297 374.93217468 C225.37875735 375.52383257 227.02624299 376.79497712 229.71972656 379.41992188 C231.12884752 382.23816379 230.83156209 384.59243469 230.81738281 387.74023438 C230.81416016 388.99707031 230.8109375 390.25390625 230.80761719 391.54882812 C230.79923828 392.86753906 230.79085938 394.18625 230.78222656 395.54492188 C230.77721146 396.88476399 230.77264857 398.22460788 230.76855469 399.56445312 C230.75673742 402.84965394 230.74026274 406.13476585 230.71972656 409.41992188 C234.92973308 409.51366696 239.13387917 409.50703363 243.34472656 409.48242188 C244.53453125 409.51013672 245.72433594 409.53785156 246.95019531 409.56640625 C253.44382694 409.64382034 253.44382694 409.64382034 258.77148438 406.44848633 C260.36610554 404.09084386 260.36610554 404.09084386 261.53564453 401.63818359 C263.89734299 397.21377283 268.08419223 395.20051781 272.46972656 393.10742188 C281.02508399 391.29763473 289.15774601 391.76254312 296.71972656 396.41992188 C303.22781738 401.9540127 306.85399945 408.00117369 307.99316406 416.44726562 C308.36956537 423.75813715 306.10543465 430.11748556 301.46972656 435.73242188 C295.88671032 441.67029084 289.83974384 444.54135161 281.65722656 444.79492188 C274.10586745 444.7192401 268.4143932 442.86110826 262.84082031 437.66992188 C260.24376961 434.76623145 258.43258164 431.91099097 256.71972656 428.41992188 C255.56448486 428.41581299 254.40924316 428.4117041 253.21899414 428.4074707 C248.92280787 428.38565863 244.62753477 428.33134786 240.33178711 428.26733398 C238.47445443 428.24417199 236.61699074 428.22976248 234.75952148 428.22436523 C232.08527156 428.21506225 229.41307688 428.17404491 226.73925781 428.12695312 C225.91198685 428.13088577 225.08471588 428.13481842 224.2323761 428.13887024 C220.08935656 428.03459239 218.17043129 427.73451552 214.68652344 425.30273438 C212.27223211 421.76401144 212.13770754 419.84358529 212.23144531 415.58789062 C212.24393311 414.42281982 212.2564209 413.25774902 212.26928711 412.05737305 C212.33756714 409.85464722 212.33756714 409.85464722 212.40722656 407.60742188 C212.51035156 402.92554688 212.61347656 398.24367188 212.71972656 393.41992188 C198.85972656 393.41992188 184.99972656 393.41992188 170.71972656 393.41992188 C170.71972656 421.13992188 170.71972656 448.85992187 170.71972656 477.41992188 C185.90748364 477.41645505 185.90748364 477.41645505 201.09472656 477.35742188 C207.28819428 477.32100882 213.48121463 477.29113566 219.67480469 477.29980469 C224.66775285 477.30638694 229.65980273 477.28397599 234.652565 477.24136734 C236.5583298 477.23021639 238.46418549 477.22955385 240.36995697 477.23949814 C243.03800184 477.25163681 245.70329047 477.22665514 248.37109375 477.19287109 C249.55576736 477.21120247 249.55576736 477.21120247 250.76437378 477.22990417 C253.24967987 477.23805081 253.24967987 477.23805081 256.71972656 476.41992188 C259.18605775 473.63754915 259.18605775 473.63754915 260.71972656 470.41992188 C266.04944753 464.20191408 272.77031429 460.80811107 280.90722656 460.16992188 C288.66662368 460.6787348 296.01623797 463.35230131 301.34863281 469.20898438 C306.03951536 475.06411006 308.21667419 480.67469421 307.96582031 488.31835938 C307.100667 495.70649398 304.0428369 502.21006921 298.71972656 507.41992188 C291.19309314 513.22698736 282.91035331 513.49027482 273.71972656 512.41992188 C266.58299017 510.69530513 261.95396775 505.15357017 257.71972656 499.41992188 C257.38972656 498.42992187 257.05972656 497.43992187 256.71972656 496.41992188 C255.48832947 496.41627625 254.25693237 496.41263062 252.98822021 496.40887451 C241.39298501 496.37196027 229.79801626 496.31422668 218.20298386 496.23601913 C212.24159379 496.19648162 206.28035283 496.16432386 200.31884766 496.14892578 C194.56745255 496.13380064 188.81646721 496.09942861 183.06525421 496.05161285 C180.86922005 496.03675629 178.6731274 496.02887842 176.47704315 496.02803802 C173.40482202 496.02567951 170.33374361 495.99868929 167.26171875 495.96582031 C166.35037674 495.97085068 165.43903473 495.97588104 164.50007629 495.98106384 C158.32859055 495.87866345 158.32859055 495.87866345 155.18585205 493.51080322 C152.74520618 490.03013191 152.60802316 488.02641477 152.65722656 483.79492188 C152.66625 482.79203125 152.67527344 481.78914063 152.68457031 480.75585938 C152.70197266 479.59957031 152.70197266 479.59957031 152.71972656 478.41992188 C152.09372425 478.42144076 151.46772193 478.42295964 150.82274985 478.42452455 C113.69592121 478.5140955 76.56910859 478.58269772 39.44219397 478.62418319 C34.98131924 478.62918584 30.52044472 478.63436315 26.05957031 478.63964844 C24.7274871 478.6412223 24.7274871 478.6412223 23.36849311 478.64282796 C9.00147749 478.66021888 -5.36547391 478.69174932 -19.73245147 478.72853306 C-34.48142726 478.76597904 -49.23036949 478.78816545 -63.97939086 478.79627585 C-73.07557879 478.80175605 -82.17158518 478.81904588 -91.26771721 478.85158774 C-97.51078307 478.87278081 -103.7537555 478.87911111 -109.99685469 478.87392738 C-113.59533921 478.87137302 -117.19350717 478.87520491 -120.79193497 478.89674377 C-124.70273405 478.91998006 -128.61312648 478.91183195 -132.52398682 478.90093994 C-133.64853531 478.91259131 -134.77308381 478.92424267 -135.93170953 478.93624711 C-147.18921564 478.85181995 -156.83238544 475.98820332 -165.28027344 468.41992188 C-165.88484375 467.91847656 -166.48941406 467.41703125 -167.11230469 466.90039062 C-175.86926616 459.05918983 -179.76158443 447.89550742 -180.46571219 436.38977861 C-180.53988585 432.92883822 -180.55167615 429.47301761 -180.54096985 426.0112915 C-180.54399569 424.67620117 -180.54788733 423.34111256 -180.55256242 422.00602698 C-180.56279568 418.36150889 -180.56067259 414.71708968 -180.55638182 411.07256365 C-180.55390602 407.13241054 -180.5629394 403.19228071 -180.57041931 399.25213623 C-180.58314525 391.54180618 -180.58496258 383.831511 -180.58261905 376.12117222 C-180.58083316 369.85055039 -180.58259134 363.57993911 -180.58684349 357.30931854 C-180.58743868 356.41549852 -180.58803387 355.5216785 -180.58864709 354.60077302 C-180.5898589 352.7847206 -180.59107303 350.96866818 -180.59228947 349.15261576 C-180.60315717 332.13469117 -180.60100633 315.11678641 -180.59490462 298.09886071 C-180.58973772 282.55046669 -180.6009863 267.00213536 -180.62000284 251.45375374 C-180.63940333 235.46820821 -180.64763327 219.4826923 -180.64387959 203.49713492 C-180.6419707 194.53072531 -180.64442451 185.56436903 -180.65859413 176.59796906 C-180.6705372 168.96355001 -180.67188021 161.32921712 -180.65980396 153.69479683 C-180.65393539 149.80442503 -180.65275938 145.91421059 -180.66480637 142.02384949 C-180.67573379 138.4533331 -180.67248147 134.88310415 -180.65854468 131.31260082 C-180.65468394 129.42857077 -180.66538864 127.54452762 -180.67684156 125.66052842 C-180.57425958 109.28611579 -176.9399932 95.04989832 -165.46777344 82.98242188 C-149.99450372 68.60439866 -133.78186659 67.83378996 -113.69824219 68.02929688 C-111.42996218 68.03677012 -109.16167565 68.04245792 -106.89338684 68.04644775 C-100.96350848 68.0616187 -95.03403069 68.10082604 -89.10430908 68.14526367 C-83.03736792 68.18640169 -76.97036116 68.20449814 -70.90332031 68.22460938 C-59.0287967 68.26732927 -47.15456856 68.3354758 -35.28027344 68.41992188 C-35.30383911 66.8329248 -35.30383911 66.8329248 -35.32788086 65.21386719 C-35.38278853 61.23298972 -35.41684127 57.25214464 -35.44506836 53.27099609 C-35.46001804 51.55837345 -35.4803853 49.84578816 -35.5065918 48.13330078 C-35.72011369 33.80640045 -35.52902549 20.54090815 -25.28027344 9.41992188 C-17.82873377 3.09213325 -9.69969043 -0.0393513 0 0 Z M-13.80371094 24.20117188 C-16.32280464 29.28558118 -17.40749584 33.00429174 -17.39379883 38.64746094 C-17.3937233 39.68823792 -17.39364777 40.72901489 -17.39356995 41.80133057 C-17.38840866 42.91812195 -17.38324738 44.03491333 -17.37792969 45.18554688 C-17.37651474 46.33408142 -17.37509979 47.48261597 -17.37364197 48.66595459 C-17.36804487 52.33397019 -17.35549287 56.00192473 -17.34277344 59.66992188 C-17.33775806 62.15690016 -17.33319522 64.6438794 -17.32910156 67.13085938 C-17.31807639 73.22723706 -17.30081371 79.32356912 -17.28027344 85.41992188 C-11.67027344 85.41992188 -6.06027344 85.41992188 -0.28027344 85.41992188 C-0.26569092 84.01186279 -0.2511084 82.60380371 -0.23608398 81.15307617 C-0.1781782 75.93650724 -0.10094479 70.72037347 -0.01782227 65.50415039 C0.01546342 63.24510757 0.0434839 60.98598085 0.06616211 58.72680664 C0.09964083 55.48222039 0.15195374 52.23840555 0.20800781 48.99414062 C0.21439774 47.98155685 0.22078766 46.96897308 0.22737122 45.92570496 C0.24716537 44.98495621 0.26695953 44.04420746 0.28735352 43.07495117 C0.29845657 42.24666306 0.30955963 41.41837494 0.32099915 40.56498718 C0.71972656 38.41992188 0.71972656 38.41992188 1.90991211 36.65600586 C4.38621722 34.96471586 6.12040085 35.02174482 9.10913086 34.98754883 C10.21004562 34.96775467 11.31096039 34.94796051 12.44523621 34.92756653 C14.22659721 34.91798164 14.22659721 34.91798164 16.04394531 34.90820312 C17.26048294 34.89025192 18.47702057 34.87230072 19.73042297 34.85380554 C23.62265539 34.7995479 27.5147641 34.76575638 31.40722656 34.73242188 C34.04331154 34.69926256 36.67938017 34.66477421 39.31542969 34.62890625 C45.7834396 34.54381213 52.25141183 34.47707418 58.71972656 34.41992188 C58.71972656 29.13992187 58.71972656 23.85992187 58.71972656 18.41992188 C50.4960493 18.32935658 42.27276329 18.25605466 34.04872036 18.21267319 C30.22947518 18.19184651 26.41059049 18.16362027 22.59155273 18.11816406 C18.90217129 18.07452863 15.21313539 18.0507478 11.5235157 18.0404129 C10.11974719 18.03305305 8.71599642 18.01868096 7.31237602 17.99700165 C-4.50682011 17.66080844 -4.50682011 17.66080844 -13.80371094 24.20117188 Z M274.71972656 29.41992188 C273.15542409 32.54852683 273.36345373 34.97595112 273.71972656 38.41992188 C275.65098759 41.09830761 275.65098759 41.09830761 278.71972656 42.41992188 C282.24388226 42.35916057 284.63589622 42.14247544 287.59472656 40.16992188 C289.10436001 37.82160318 289.58635711 36.22068039 289.71972656 33.41992188 C288.09817028 29.93357586 286.95519365 28.57689993 283.71972656 26.41992188 C279.42585645 26.41992188 278.13106173 27.02276744 274.71972656 29.41992188 Z M273.71972656 125.41992188 C272.88639323 128.41992188 272.88639323 128.41992188 273.71972656 131.41992188 C275.63639323 134.50325521 275.63639323 134.50325521 278.71972656 136.41992188 C282.29159321 136.41992188 284.60084255 136.16584455 287.59472656 134.16992188 C289.10436001 131.82160318 289.58635711 130.22068039 289.71972656 127.41992188 C288.09817028 123.93357586 286.95519365 122.57689993 283.71972656 120.41992188 C278.726307 119.50008143 276.68062419 121.52845643 273.71972656 125.41992188 Z M215.84472656 199.54492188 C213.51890521 202.25120855 213.51890521 202.25120855 213.15722656 205.48242188 C213.85617342 209.13247766 214.70174701 210.27556799 217.71972656 212.41992188 C220.6232378 213.58441069 220.6232378 213.58441069 223.71972656 213.41992188 C227.17656618 211.49945542 228.4413357 210.23769504 229.71972656 206.48242188 C229.71972656 202.84750893 228.9193407 201.27127354 226.71972656 198.41992188 C222.5143158 196.31721649 219.56424911 196.79570955 215.84472656 199.54492188 Z M-59.28027344 256.41992188 C-59.28027344 273.24992187 -59.28027344 290.07992188 -59.28027344 307.41992188 C-48.39027344 307.41992188 -37.50027344 307.41992188 -26.28027344 307.41992188 C-26.28027344 290.58992188 -26.28027344 273.75992187 -26.28027344 256.41992188 C-37.17027344 256.41992188 -48.06027344 256.41992188 -59.28027344 256.41992188 Z M215.28222656 276.54492188 C213.45135797 279.91372008 213.07721934 281.64519193 213.71972656 285.41992188 C215.65613198 288.07351449 217.09831279 289.18091658 220.15722656 290.35742188 C223.53852407 290.43989255 225.050594 289.43980598 227.71972656 287.41992188 C230.06495591 284.5347921 230.06495591 284.5347921 229.59472656 280.91992188 C229.00390217 277.47174911 229.00390217 277.47174911 227.09472656 275.48242188 C222.58331409 273.4641584 219.08411165 273.23045796 215.28222656 276.54492188 Z M273.71972656 329.41992188 C273.19201068 333.11393306 273.24249146 335.41242555 274.84472656 338.79492188 C277.46907254 341.06935506 279.26820218 341.35089139 282.71972656 341.41992188 C286.30220469 340.0357826 287.4378864 338.96011552 289.21972656 335.54492188 C290.01753212 332.40296473 290.01753212 332.40296473 288.46972656 329.66992188 C285.90786511 326.18101949 285.90786511 326.18101949 281.90722656 325.04492188 C277.89903053 325.51647435 276.36906113 326.38097929 273.71972656 329.41992188 Z M274.71972656 413.41992188 C273.15542409 416.54852683 273.36345373 418.97595112 273.71972656 422.41992188 C275.65098759 425.09830761 275.65098759 425.09830761 278.71972656 426.41992188 C282.24388226 426.35916057 284.63589622 426.14247544 287.59472656 424.16992188 C289.10436001 421.82160318 289.58635711 420.22068039 289.71972656 417.41992188 C288.09817028 413.93357586 286.95519365 412.57689993 283.71972656 410.41992188 C279.42585645 410.41992188 278.13106173 411.02276744 274.71972656 413.41992188 Z M274.71972656 481.41992188 C273.1738578 484.51165939 273.42613135 487.0142174 273.71972656 490.41992188 C275.13639323 493.00325521 275.13639323 493.00325521 277.71972656 494.41992188 C281.7042564 494.98914042 283.77466404 495.09141367 287.09472656 492.73242188 C288.93894463 490.1079577 289.64141679 488.6306224 289.71972656 485.41992188 C288.42965269 482.500281 287.39678516 480.86424158 284.71972656 479.10742188 C280.4498055 477.63963651 278.25933418 478.99808508 274.71972656 481.41992188 Z " fill="#98B0DF" transform="translate(192.2802734375,-0.419921875)"/>
<path d="M0 0 C5.94 0 11.88 0 18 0 C18 5.61 18 11.22 18 17 C23.94 17 29.88 17 36 17 C36 22.94 36 28.88 36 35 C31.81797925 35.09208119 27.63950411 35.17162732 23.45727539 35.21972656 C22.03625543 35.23978421 20.61531741 35.26703778 19.19458008 35.30175781 C17.14644105 35.35054011 15.09939725 35.37302539 13.05078125 35.390625 C11.82012939 35.41157227 10.58947754 35.43251953 9.3215332 35.45410156 C5.35456984 34.91176037 3.74381527 33.87799103 1 31 C-0.42074609 27.72923001 -0.11428968 24.22941283 -0.09765625 20.703125 C-0.09443359 19.49785156 -0.09121094 18.29257812 -0.08789062 17.05078125 C-0.07951172 15.79652344 -0.07113281 14.54226563 -0.0625 13.25 C-0.05798828 11.98027344 -0.05347656 10.71054687 -0.04882812 9.40234375 C-0.03704566 6.26820905 -0.01911036 3.13409858 0 0 Z " fill="#4ED7D2" transform="translate(46,409)"/>
<path d="M0 0 C5.94 0 11.88 0 18 0 C18 5.94 18 11.88 18 18 C12.06 18 6.12 18 0 18 C0 12.06 0 6.12 0 0 Z " fill="#5CD0D4" transform="translate(132,426)"/>
<path d="M0 0 C5.94 0 11.88 0 18 0 C18 5.94 18 11.88 18 18 C12.06 18 6.12 18 0 18 C0 12.06 0 6.12 0 0 Z " fill="#56D3D3" transform="translate(98,426)"/>
<path d="M0 0 C5.94 0 11.88 0 18 0 C18 5.94 18 11.88 18 18 C12.06 18 6.12 18 0 18 C0 12.06 0 6.12 0 0 Z " fill="#56D3D3" transform="translate(46,375)"/>
<path d="M0 0 C5.94 0 11.88 0 18 0 C18 5.94 18 11.88 18 18 C12.06 18 6.12 18 0 18 C0 12.06 0 6.12 0 0 Z " fill="#6AC8D7" transform="translate(140,358)"/>
</svg>
